<svg width="1440" height="5450" viewBox="0 0 1440 5450" fill="none" xmlns="http://www.w3.org/2000/svg">
<g clip-path="url(#clip0_7_1254)">
<path opacity="0.5" d="M277.035 -1497.54L-118.912 -111.65L759.595 140.78L1155.54 -1240.16L277.035 -1497.54Z" stroke="#575757" stroke-miterlimit="10"/>
<path opacity="0.5" d="M-480.213 -84.4274L-482.688 937.665L957.568 935.19L950.144 -89.377L-480.213 -84.4274Z" stroke="#575757" stroke-miterlimit="10"/>
<path opacity="0.5" d="M-185.728 516.949L-250.069 1336.11L999.637 1432.63L1066.45 608.517L-185.728 516.949Z" stroke="#575757" stroke-miterlimit="10"/>
<path opacity="0.5" d="M233.481 3755.23L1032.3 3562.69L737.075 2344.34L-67.1914 2536.14L233.481 3755.23Z" stroke="#575757" stroke-miterlimit="10"/>
<path opacity="0.5" d="M41.9412 1217.32L155.776 2056.27L668.032 1982.03L551.722 1145.55L41.9412 1217.32Z" stroke="#575757" stroke-miterlimit="10"/>
<path opacity="0.5" d="M-133.76 -519.992L-19.9253 318.966L450.261 237.297L329.003 -584.336L-133.76 -519.992Z" stroke="#575757" stroke-miterlimit="10"/>
<path d="M1322.58 -1128.79V967.363" stroke="#575757" stroke-miterlimit="10"/>
<path d="M4474.07 315.253L-3030.36 302.879" stroke="#575757" stroke-miterlimit="10" stroke-dasharray="2 2"/>
<path d="M4474.07 971.075L-3004.37 958.701" stroke="#575757" stroke-miterlimit="10"/>
<path d="M4417.15 545.41L451.499 533.036" stroke="#575757" stroke-miterlimit="10" stroke-dasharray="2 2"/>
<path d="M445.312 533.036H442.838" stroke="#575757" stroke-miterlimit="10"/>
<path d="M1952.38 1683.82L-2995.71 1671.44" stroke="#575757" stroke-miterlimit="10" stroke-dasharray="2 2"/>
<path d="M1297.83 311.046H1347.33" stroke="#828282" stroke-miterlimit="10"/>
<path d="M1322.58 334.804V285.308" stroke="#828282" stroke-miterlimit="10"/>
<path d="M1297.83 966.868H1347.33" stroke="#828282" stroke-miterlimit="10"/>
<path d="M1322.58 990.626V941.13" stroke="#828282" stroke-miterlimit="10"/>
<g opacity="0.5">
<path d="M162.457 1896.4C874.929 1896.4 1452.5 1318.8 1452.5 606.29C1452.5 -106.22 874.929 -683.823 162.457 -683.823C-550.014 -683.823 -1127.59 -106.22 -1127.59 606.29C-1127.59 1318.8 -550.014 1896.4 162.457 1896.4Z" stroke="#575757" stroke-miterlimit="10" stroke-dasharray="2 2"/>
</g>
<g opacity="0.5">
<path d="M391.364 739.434C506.032 739.434 598.989 646.472 598.989 531.798C598.989 417.124 506.032 324.163 391.364 324.163C276.696 324.163 183.74 417.124 183.74 531.798C183.74 646.472 276.696 739.434 391.364 739.434Z" stroke="#575757" stroke-miterlimit="10" stroke-dasharray="2.01 2.01"/>
</g>
<path d="M395.819 559.021L578.944 447.655L952.619 497.151L1155.54 -210.642L1316.39 -319.533L1965.99 316.491" stroke="#575757" stroke-miterlimit="10"/>
<path opacity="0.5" d="M138.454 1942.43H-2979.63" stroke="#575757" stroke-miterlimit="10"/>
<path d="M4436.95 2275.29H-608.896" stroke="#575757" stroke-miterlimit="10" stroke-dasharray="2 2"/>
<path d="M4568.11 3193.45H727.424" stroke="#575757" stroke-miterlimit="10" stroke-dasharray="2 2"/>
<path d="M722.475 3193.45H720" stroke="#575757" stroke-miterlimit="10"/>
<path opacity="0.5" d="M4578.01 2980.61H720" stroke="#575757" stroke-miterlimit="10"/>
<path opacity="0.5" d="M4575.53 4376.4H717.525" stroke="#575757" stroke-miterlimit="10"/>
<path d="M718.763 2279.01V4375.16" stroke="#575757" stroke-miterlimit="10"/>
<path d="M1322.58 2279.01V6689.1" stroke="#575757" stroke-miterlimit="10"/>
<path d="M694.016 2275.29H743.509" stroke="#828282" stroke-miterlimit="10"/>
<path d="M718.763 2299.05V2249.56" stroke="#828282" stroke-miterlimit="10"/>
<path d="M694.016 3193.45H743.509" stroke="#828282" stroke-miterlimit="10"/>
<path d="M718.763 3217.2V3167.71" stroke="#828282" stroke-miterlimit="10"/>
<path d="M694.016 2980.61H743.509" stroke="#828282" stroke-miterlimit="10"/>
<path d="M718.763 3004.37V2954.88" stroke="#828282" stroke-miterlimit="10"/>
<path d="M1297.83 4376.4H1347.33" stroke="#828282" stroke-miterlimit="10"/>
<path d="M1322.58 4400.16V4350.66" stroke="#828282" stroke-miterlimit="10"/>
<path d="M694.263 4376.4H743.757" stroke="#828282" stroke-miterlimit="10"/>
<path d="M719.01 4400.16V4350.66" stroke="#828282" stroke-miterlimit="10"/>
<path d="M1297.83 2275.29H1347.33" stroke="#828282" stroke-miterlimit="10"/>
<path d="M1322.58 2299.05V2249.56" stroke="#828282" stroke-miterlimit="10"/>
<path d="M723.217 4734.01C920.025 4734.01 1079.57 4574.46 1079.57 4377.64C1079.57 4180.82 920.025 4021.27 723.217 4021.27C526.409 4021.27 366.865 4180.82 366.865 4377.64C366.865 4574.46 526.409 4734.01 723.217 4734.01Z" stroke="#575757" stroke-miterlimit="10" stroke-dasharray="2 2"/>
<path opacity="0.5" d="M682.88 4105.41L286.933 5491.3L1165.44 5743.73L1561.39 4362.79L682.88 4105.41Z" stroke="#575757" stroke-miterlimit="10"/>
<path opacity="0.5" d="M272.085 5082.96L484.907 5912.01L992.213 5815.5L806.613 4979.01L272.085 5082.96Z" stroke="#575757" stroke-miterlimit="10"/>
<path opacity="0.5" d="M722.97 2930.37L1393.85 2775.95L1302.78 2360.68L640.811 2507.43L722.97 2930.37Z" stroke="#575757" stroke-miterlimit="10"/>
<path d="M-618.795 3761.41L-370.338 3370.89L-115.2 3356.04L140.928 2991.75L301.781 2882.86L940.245 3201.86L655.659 3777L723.217 4377.64" stroke="#575757" stroke-miterlimit="10"/>
</g>
<defs>
<clipPath id="clip0_7_1254">
<rect width="7424" height="12374" fill="white" transform="translate(-2992 -5675)"/>
</clipPath>
</defs>
</svg>
